<svg xmlns="http://www.w3.org/2000/svg" xmlns:xlink="http://www.w3.org/1999/xlink" width="200" zoomAndPan="magnify" viewBox="0 0 150 74.999997" height="100" preserveAspectRatio="xMidYMid meet" version="1.0"><defs><g/></defs><g fill="#f6d551" fill-opacity="1"><g transform="translate(25.646333, 44.349665)"><g><path d="M 3.328125 -18.96875 L 3.328125 -26.03125 L 9.875 -26.03125 L 9.875 -18.96875 L 13.875 -18.96875 L 13.875 -13.984375 L 9.875 -13.984375 L 9.875 -7.953125 C 9.875 -6.203125 10.367188 -5.328125 11.359375 -5.328125 C 11.597656 -5.328125 11.851562 -5.375 12.125 -5.46875 C 12.394531 -5.570312 12.609375 -5.671875 12.765625 -5.765625 L 12.984375 -5.921875 L 14.609375 -0.625 C 13.203125 0.164062 11.597656 0.5625 9.796875 0.5625 C 8.566406 0.5625 7.503906 0.347656 6.609375 -0.078125 C 5.722656 -0.515625 5.050781 -1.097656 4.59375 -1.828125 C 4.144531 -2.554688 3.820312 -3.320312 3.625 -4.125 C 3.425781 -4.925781 3.328125 -5.78125 3.328125 -6.6875 L 3.328125 -13.984375 L 0.59375 -13.984375 L 0.59375 -18.96875 Z M 3.328125 -18.96875 "/></g></g></g><g fill="#f6d551" fill-opacity="1"><g transform="translate(39.844434, 44.349665)"><g><path d="M 2.21875 0 L 2.21875 -18.96875 L 8.765625 -18.96875 L 8.765625 -16.234375 L 8.84375 -16.234375 C 8.882812 -16.335938 8.960938 -16.460938 9.078125 -16.609375 C 9.191406 -16.753906 9.429688 -17.007812 9.796875 -17.375 C 10.171875 -17.75 10.566406 -18.082031 10.984375 -18.375 C 11.398438 -18.675781 11.941406 -18.941406 12.609375 -19.171875 C 13.273438 -19.410156 13.953125 -19.53125 14.640625 -19.53125 C 15.359375 -19.53125 16.0625 -19.429688 16.75 -19.234375 C 17.445312 -19.035156 17.953125 -18.835938 18.265625 -18.640625 L 18.78125 -18.34375 L 16.046875 -12.796875 C 15.234375 -13.484375 14.101562 -13.828125 12.65625 -13.828125 C 11.863281 -13.828125 11.179688 -13.65625 10.609375 -13.3125 C 10.046875 -12.96875 9.644531 -12.546875 9.40625 -12.046875 C 9.175781 -11.554688 9.007812 -11.140625 8.90625 -10.796875 C 8.8125 -10.453125 8.765625 -10.179688 8.765625 -9.984375 L 8.765625 0 Z M 2.21875 0 "/></g></g></g><g fill="#f6d551" fill-opacity="1"><g transform="translate(57.850902, 44.349665)"><g><path d="M 3.5 -2.34375 C 1.726562 -4.28125 0.84375 -6.65625 0.84375 -9.46875 C 0.84375 -12.28125 1.726562 -14.660156 3.5 -16.609375 C 5.28125 -18.554688 7.539062 -19.53125 10.28125 -19.53125 C 12.789062 -19.53125 14.863281 -18.738281 16.5 -17.15625 L 16.5 -18.96875 L 23.046875 -18.96875 L 23.046875 0 L 16.5625 0 L 16.5625 -2.140625 L 16.5 -2.140625 C 14.863281 -0.335938 12.789062 0.5625 10.28125 0.5625 C 7.539062 0.5625 5.28125 -0.40625 3.5 -2.34375 Z M 9.078125 -12.671875 C 8.222656 -11.835938 7.796875 -10.769531 7.796875 -9.46875 C 7.796875 -8.164062 8.203125 -7.097656 9.015625 -6.265625 C 9.835938 -5.441406 10.910156 -5.03125 12.234375 -5.03125 C 13.523438 -5.03125 14.582031 -5.445312 15.40625 -6.28125 C 16.226562 -7.125 16.640625 -8.1875 16.640625 -9.46875 C 16.640625 -10.769531 16.210938 -11.835938 15.359375 -12.671875 C 14.515625 -13.515625 13.472656 -13.9375 12.234375 -13.9375 C 10.984375 -13.9375 9.929688 -13.515625 9.078125 -12.671875 Z M 9.078125 -12.671875 "/></g></g></g><g fill="#f6d551" fill-opacity="1"><g transform="translate(82.697658, 44.349665)"><g><path d="M 12.3125 -14.171875 C 11.082031 -14.171875 10.019531 -13.710938 9.125 -12.796875 C 8.238281 -11.878906 7.796875 -10.78125 7.796875 -9.5 C 7.796875 -8.195312 8.238281 -7.085938 9.125 -6.171875 C 10.019531 -5.265625 11.082031 -4.8125 12.3125 -4.8125 C 12.90625 -4.8125 13.46875 -4.882812 14 -5.03125 C 14.53125 -5.175781 14.914062 -5.320312 15.15625 -5.46875 L 15.5 -5.703125 L 17.71875 -1.140625 C 17.539062 -1.023438 17.296875 -0.875 16.984375 -0.6875 C 16.679688 -0.5 15.976562 -0.242188 14.875 0.078125 C 13.78125 0.398438 12.609375 0.5625 11.359375 0.5625 C 8.566406 0.5625 6.113281 -0.414062 4 -2.375 C 1.894531 -4.34375 0.84375 -6.695312 0.84375 -9.4375 C 0.84375 -12.195312 1.894531 -14.566406 4 -16.546875 C 6.113281 -18.535156 8.566406 -19.53125 11.359375 -19.53125 C 12.609375 -19.53125 13.765625 -19.378906 14.828125 -19.078125 C 15.890625 -18.785156 16.644531 -18.492188 17.09375 -18.203125 L 17.71875 -17.75 L 15.5 -13.28125 C 14.6875 -13.875 13.625 -14.171875 12.3125 -14.171875 Z M 12.3125 -14.171875 "/></g></g></g><g fill="#f6d551" fill-opacity="1"><g transform="translate(100.445311, 44.349665)"><g><path d="M 23.890625 -18.96875 L 14.875 -9.90625 L 24.78125 0 L 16.34375 0 L 8.765625 -7.578125 L 8.765625 0 L 2.21875 0 L 2.21875 -31.8125 L 8.765625 -31.8125 L 8.765625 -12.359375 L 15.390625 -18.96875 Z M 23.890625 -18.96875 "/></g></g></g><g fill="#000000" fill-opacity="1"><g transform="translate(51.247199, 58.007039)"><g><path d="M 3.90625 0.109375 C 3.1875 0.109375 2.65625 -0.15625 2.3125 -0.6875 L 2.203125 -0.671875 L 2.203125 0 L 0.796875 0 L 0.796875 -7.8125 L 2.203125 -7.8125 L 2.203125 -4.921875 L 2.3125 -4.90625 C 2.5 -5.164062 2.722656 -5.359375 2.984375 -5.484375 C 3.253906 -5.617188 3.570312 -5.6875 3.9375 -5.6875 C 4.382812 -5.6875 4.773438 -5.578125 5.109375 -5.359375 C 5.453125 -5.148438 5.71875 -4.828125 5.90625 -4.390625 C 6.09375 -3.960938 6.1875 -3.425781 6.1875 -2.78125 C 6.1875 -2.15625 6.085938 -1.625 5.890625 -1.1875 C 5.691406 -0.75 5.421875 -0.421875 5.078125 -0.203125 C 4.734375 0.00390625 4.34375 0.109375 3.90625 0.109375 Z M 3.46875 -1.078125 C 3.882812 -1.078125 4.195312 -1.210938 4.40625 -1.484375 C 4.625 -1.765625 4.734375 -2.195312 4.734375 -2.78125 C 4.734375 -3.375 4.625 -3.804688 4.40625 -4.078125 C 4.195312 -4.359375 3.882812 -4.5 3.46875 -4.5 C 3.082031 -4.5 2.769531 -4.351562 2.53125 -4.0625 C 2.300781 -3.78125 2.1875 -3.351562 2.1875 -2.78125 C 2.1875 -2.207031 2.300781 -1.78125 2.53125 -1.5 C 2.769531 -1.21875 3.082031 -1.078125 3.46875 -1.078125 Z M 3.46875 -1.078125 "/></g></g><g transform="translate(57.927072, 58.007039)"><g><path d="M 1.234375 2.375 C 0.992188 2.375 0.773438 2.351562 0.578125 2.3125 C 0.390625 2.269531 0.234375 2.222656 0.109375 2.171875 L 0.328125 1.03125 L 0.421875 1 C 0.503906 1.039062 0.609375 1.070312 0.734375 1.09375 C 0.859375 1.125 0.988281 1.140625 1.125 1.140625 C 1.351562 1.140625 1.539062 1.109375 1.6875 1.046875 C 1.832031 0.992188 1.957031 0.898438 2.0625 0.765625 C 2.164062 0.628906 2.257812 0.441406 2.34375 0.203125 L 0.125 -5.578125 L 1.59375 -5.578125 L 2.96875 -1.703125 L 3.09375 -1.703125 L 4.453125 -5.578125 L 5.875 -5.578125 L 3.625 0.34375 C 3.445312 0.820312 3.25 1.207031 3.03125 1.5 C 2.820312 1.789062 2.570312 2.007812 2.28125 2.15625 C 1.988281 2.300781 1.640625 2.375 1.234375 2.375 Z M 1.234375 2.375 "/></g></g></g><g fill="#ee592d" fill-opacity="1"><g transform="translate(67.401384, 57.949196)"><g><path d="M 6.109375 -4.921875 L 6.109375 -7.890625 L 7.671875 -7.890625 L 7.671875 0 L 6.109375 0 L 6.109375 -3.59375 L 2.578125 -3.59375 L 2.578125 0 L 1.03125 0 L 1.03125 -7.890625 L 2.578125 -7.890625 L 2.578125 -4.921875 Z M 6.109375 -4.921875 "/></g></g></g><g fill="#ee592d" fill-opacity="1"><g transform="translate(76.099449, 57.949196)"><g><path d="M 2.3125 0.109375 C 1.9375 0.109375 1.609375 0.0390625 1.328125 -0.09375 C 1.046875 -0.238281 0.828125 -0.445312 0.671875 -0.71875 C 0.523438 -0.988281 0.453125 -1.3125 0.453125 -1.6875 C 0.453125 -2.039062 0.523438 -2.335938 0.671875 -2.578125 C 0.828125 -2.816406 1.0625 -3.007812 1.375 -3.15625 C 1.695312 -3.3125 2.113281 -3.429688 2.625 -3.515625 C 2.976562 -3.578125 3.25 -3.640625 3.4375 -3.703125 C 3.625 -3.773438 3.75 -3.851562 3.8125 -3.9375 C 3.875 -4.03125 3.90625 -4.140625 3.90625 -4.265625 C 3.90625 -4.460938 3.835938 -4.609375 3.703125 -4.703125 C 3.566406 -4.804688 3.347656 -4.859375 3.046875 -4.859375 C 2.710938 -4.859375 2.394531 -4.785156 2.09375 -4.640625 C 1.800781 -4.492188 1.546875 -4.300781 1.328125 -4.0625 L 1.21875 -4.0625 L 0.59375 -5 C 0.894531 -5.332031 1.257812 -5.59375 1.6875 -5.78125 C 2.125 -5.96875 2.601562 -6.0625 3.125 -6.0625 C 3.90625 -6.0625 4.472656 -5.894531 4.828125 -5.5625 C 5.179688 -5.226562 5.359375 -4.753906 5.359375 -4.140625 L 5.359375 -1.546875 C 5.359375 -1.285156 5.472656 -1.15625 5.703125 -1.15625 C 5.796875 -1.15625 5.882812 -1.171875 5.96875 -1.203125 L 6.046875 -1.1875 L 6.15625 -0.140625 C 6.070312 -0.0859375 5.957031 -0.0390625 5.8125 0 C 5.664062 0.03125 5.503906 0.046875 5.328125 0.046875 C 4.972656 0.046875 4.691406 -0.0195312 4.484375 -0.15625 C 4.285156 -0.289062 4.144531 -0.503906 4.0625 -0.796875 L 3.953125 -0.8125 C 3.660156 -0.195312 3.113281 0.109375 2.3125 0.109375 Z M 2.796875 -1 C 3.140625 -1 3.414062 -1.113281 3.625 -1.34375 C 3.832031 -1.582031 3.9375 -1.90625 3.9375 -2.3125 L 3.9375 -2.921875 L 3.828125 -2.9375 C 3.734375 -2.875 3.613281 -2.816406 3.46875 -2.765625 C 3.332031 -2.710938 3.125 -2.664062 2.84375 -2.625 C 2.519531 -2.570312 2.285156 -2.476562 2.140625 -2.34375 C 2.003906 -2.207031 1.9375 -2.019531 1.9375 -1.78125 C 1.9375 -1.53125 2.007812 -1.335938 2.15625 -1.203125 C 2.3125 -1.066406 2.523438 -1 2.796875 -1 Z M 2.796875 -1 "/></g></g></g><g fill="#ee592d" fill-opacity="1"><g transform="translate(82.370901, 57.949196)"><g><path d="M 2.78125 0.109375 C 2.375 0.109375 2 0.0625 1.65625 -0.03125 C 1.320312 -0.125 1.035156 -0.253906 0.796875 -0.421875 C 0.554688 -0.585938 0.378906 -0.78125 0.265625 -1 L 1.09375 -1.890625 L 1.21875 -1.890625 C 1.414062 -1.628906 1.644531 -1.429688 1.90625 -1.296875 C 2.175781 -1.160156 2.472656 -1.09375 2.796875 -1.09375 C 3.085938 -1.09375 3.304688 -1.144531 3.453125 -1.25 C 3.597656 -1.351562 3.671875 -1.503906 3.671875 -1.703125 C 3.671875 -1.847656 3.617188 -1.972656 3.515625 -2.078125 C 3.410156 -2.179688 3.238281 -2.257812 3 -2.3125 L 2.21875 -2.515625 C 1.625 -2.648438 1.191406 -2.863281 0.921875 -3.15625 C 0.648438 -3.445312 0.515625 -3.8125 0.515625 -4.25 C 0.515625 -4.625 0.609375 -4.945312 0.796875 -5.21875 C 0.984375 -5.488281 1.25 -5.695312 1.59375 -5.84375 C 1.9375 -5.988281 2.335938 -6.0625 2.796875 -6.0625 C 3.328125 -6.0625 3.769531 -5.984375 4.125 -5.828125 C 4.476562 -5.671875 4.753906 -5.460938 4.953125 -5.203125 L 4.15625 -4.34375 L 4.046875 -4.34375 C 3.878906 -4.53125 3.691406 -4.664062 3.484375 -4.75 C 3.273438 -4.84375 3.046875 -4.890625 2.796875 -4.890625 C 2.203125 -4.890625 1.90625 -4.707031 1.90625 -4.34375 C 1.90625 -4.1875 1.957031 -4.054688 2.0625 -3.953125 C 2.175781 -3.859375 2.375 -3.78125 2.65625 -3.71875 L 3.390625 -3.5625 C 3.992188 -3.425781 4.429688 -3.21875 4.703125 -2.9375 C 4.984375 -2.65625 5.125 -2.269531 5.125 -1.78125 C 5.125 -1.40625 5.03125 -1.070312 4.84375 -0.78125 C 4.65625 -0.5 4.382812 -0.28125 4.03125 -0.125 C 3.6875 0.03125 3.269531 0.109375 2.78125 0.109375 Z M 2.78125 0.109375 "/></g></g></g><g fill="#ee592d" fill-opacity="1"><g transform="translate(87.855051, 57.949196)"><g><path d="M 4.109375 -1.421875 L 4.5 -0.3125 C 4.332031 -0.175781 4.125 -0.0703125 3.875 0 C 3.632812 0.0703125 3.359375 0.109375 3.046875 0.109375 C 2.410156 0.109375 1.921875 -0.0625 1.578125 -0.40625 C 1.242188 -0.757812 1.078125 -1.269531 1.078125 -1.9375 L 1.078125 -4.765625 L 0.171875 -4.765625 L 0.171875 -5.953125 L 1.078125 -5.953125 L 1.078125 -7.109375 L 2.578125 -7.359375 L 2.578125 -5.953125 L 4.265625 -5.953125 L 4.265625 -4.765625 L 2.578125 -4.765625 L 2.578125 -2.046875 C 2.578125 -1.753906 2.632812 -1.539062 2.75 -1.40625 C 2.875 -1.269531 3.054688 -1.203125 3.296875 -1.203125 C 3.554688 -1.203125 3.785156 -1.273438 3.984375 -1.421875 Z M 4.109375 -1.421875 "/></g></g></g><g fill="#ee592d" fill-opacity="1"><g transform="translate(92.476406, 57.949196)"><g><path d="M 2.3125 0.109375 C 1.9375 0.109375 1.609375 0.0390625 1.328125 -0.09375 C 1.046875 -0.238281 0.828125 -0.445312 0.671875 -0.71875 C 0.523438 -0.988281 0.453125 -1.3125 0.453125 -1.6875 C 0.453125 -2.039062 0.523438 -2.335938 0.671875 -2.578125 C 0.828125 -2.816406 1.0625 -3.007812 1.375 -3.15625 C 1.695312 -3.3125 2.113281 -3.429688 2.625 -3.515625 C 2.976562 -3.578125 3.25 -3.640625 3.4375 -3.703125 C 3.625 -3.773438 3.75 -3.851562 3.8125 -3.9375 C 3.875 -4.03125 3.90625 -4.140625 3.90625 -4.265625 C 3.90625 -4.460938 3.835938 -4.609375 3.703125 -4.703125 C 3.566406 -4.804688 3.347656 -4.859375 3.046875 -4.859375 C 2.710938 -4.859375 2.394531 -4.785156 2.09375 -4.640625 C 1.800781 -4.492188 1.546875 -4.300781 1.328125 -4.0625 L 1.21875 -4.0625 L 0.59375 -5 C 0.894531 -5.332031 1.257812 -5.59375 1.6875 -5.78125 C 2.125 -5.96875 2.601562 -6.0625 3.125 -6.0625 C 3.90625 -6.0625 4.472656 -5.894531 4.828125 -5.5625 C 5.179688 -5.226562 5.359375 -4.753906 5.359375 -4.140625 L 5.359375 -1.546875 C 5.359375 -1.285156 5.472656 -1.15625 5.703125 -1.15625 C 5.796875 -1.15625 5.882812 -1.171875 5.96875 -1.203125 L 6.046875 -1.1875 L 6.15625 -0.140625 C 6.070312 -0.0859375 5.957031 -0.0390625 5.8125 0 C 5.664062 0.03125 5.503906 0.046875 5.328125 0.046875 C 4.972656 0.046875 4.691406 -0.0195312 4.484375 -0.15625 C 4.285156 -0.289062 4.144531 -0.503906 4.0625 -0.796875 L 3.953125 -0.8125 C 3.660156 -0.195312 3.113281 0.109375 2.3125 0.109375 Z M 2.796875 -1 C 3.140625 -1 3.414062 -1.113281 3.625 -1.34375 C 3.832031 -1.582031 3.9375 -1.90625 3.9375 -2.3125 L 3.9375 -2.921875 L 3.828125 -2.9375 C 3.734375 -2.875 3.613281 -2.816406 3.46875 -2.765625 C 3.332031 -2.710938 3.125 -2.664062 2.84375 -2.625 C 2.519531 -2.570312 2.285156 -2.476562 2.140625 -2.34375 C 2.003906 -2.207031 1.9375 -2.019531 1.9375 -1.78125 C 1.9375 -1.53125 2.007812 -1.335938 2.15625 -1.203125 C 2.3125 -1.066406 2.523438 -1 2.796875 -1 Z M 2.796875 -1 "/></g></g></g></svg>